<?xml version="1.0" encoding="UTF-8" standalone="no"?>
<!-- Created with Inkscape (http://www.inkscape.org/) -->

<svg
   xmlns:dc="http://purl.org/dc/elements/1.1/"
   xmlns:cc="http://creativecommons.org/ns#"
   xmlns:rdf="http://www.w3.org/1999/02/22-rdf-syntax-ns#"
   xmlns:svg="http://www.w3.org/2000/svg"
   xmlns="http://www.w3.org/2000/svg"
   xmlns:sodipodi="http://sodipodi.sourceforge.net/DTD/sodipodi-0.dtd"
   xmlns:inkscape="http://www.inkscape.org/namespaces/inkscape"
   width="1020.4724pt"
   height="765.35431pt"
   viewBox="0 0 1275.5906 956.69291"
   id="svg2"
   version="1.1"
   inkscape:version="0.91 r13725"
   sodipodi:docname="logo.svg">
  <title
     id="title4190">Vision Christian Fellowship</title>
  <defs
     id="defs4" />
  <sodipodi:namedview
     id="base"
     pagecolor="#ffffff"
     bordercolor="#666666"
     borderopacity="1.0"
     inkscape:pageopacity="0.0"
     inkscape:pageshadow="2"
     inkscape:zoom="0.35"
     inkscape:cx="1131.3492"
     inkscape:cy="183.27348"
     inkscape:document-units="px"
     inkscape:current-layer="layer1"
     showgrid="false"
     fit-margin-top="10"
     fit-margin-left="10"
     fit-margin-right="10"
     fit-margin-bottom="10"
     inkscape:window-width="1280"
     inkscape:window-height="971"
     inkscape:window-x="-8"
     inkscape:window-y="-8"
     inkscape:window-maximized="1"
     units="pc" />
  <metadata
     id="metadata7">
    <rdf:RDF>
      <cc:Work
         rdf:about="">
        <dc:format>image/svg+xml</dc:format>
        <dc:type
           rdf:resource="http://purl.org/dc/dcmitype/StillImage" />
        <dc:title>Vision Christian Fellowship</dc:title>
      </cc:Work>
    </rdf:RDF>
  </metadata>
  <g
     inkscape:label="Layer 1"
     inkscape:groupmode="layer"
     id="layer1"
     transform="translate(897.14755,627.57096)">
    <g
       transform="scale(0.81086672,1.2332483)"
       style="font-style:normal;font-weight:normal;font-size:515.26867676px;line-height:125%;font-family:sans-serif;letter-spacing:0px;word-spacing:0px;fill:#000000;fill-opacity:0.36416189;stroke:none;stroke-width:1px;stroke-linecap:butt;stroke-linejoin:miter;stroke-opacity:1"
       id="text4136">
      <path
         d="m -899.92526,-100.65679 -25.41119,0 -137.37145,-373.62011 55.8543,0 94.85173,271.47212 91.32937,-271.47212 54.09314,0 -133.3459,373.62011 z"
         style="font-style:normal;font-variant:normal;font-weight:normal;font-stretch:normal;font-size:515.26867676px;font-family:'Trebuchet MS';-inkscape-font-specification:'Trebuchet MS'"
         id="path4206" />
      <path
         d="m -716.51174,-105.68871 0,-368.58819 50.31921,0 0,368.58819 -50.31921,0 z"
         style="font-style:normal;font-variant:normal;font-weight:normal;font-stretch:normal;font-size:515.26867676px;font-family:'Trebuchet MS';-inkscape-font-specification:'Trebuchet MS'"
         id="path4208" />
      <path
         d="m -598.01001,-122.54565 18.36651,-46.29367 q 14.08938,10.31544 34.97185,17.36013 21.13407,6.79309 37.73941,6.79309 29.43673,0 47.30005,-16.10214 17.86332,-16.10215 17.86332,-41.01016 0,-18.6181 -10.06384,-34.46865 -9.81225,-16.10215 -49.81602,-34.97185 l -29.68833,-13.83779 q -37.7394,-17.61172 -52.83516,-41.76494 -14.84417,-24.15322 -14.84417,-58.11868 0,-41.26175 29.18514,-68.43412 29.18514,-27.17237 74.97562,-27.17237 61.13783,0 85.03946,19.87608 l -14.84417,43.77771 q -10.06384,-7.29628 -30.69472,-14.08937 -20.63087,-6.7931 -38.24259,-6.7931 -25.6628,0 -40.50696,14.59257 -14.59257,14.59257 -14.59257,37.48781 0,14.08938 5.28351,25.6628 5.28352,11.57341 14.59257,19.37289 9.56065,7.79948 38.74579,21.88886 l 30.19153,14.34097 q 37.7394,17.86332 52.83516,42.77133 15.34736,24.65641 15.34736,62.899 0,41.51335 -33.46227,70.44689 -33.21068,28.933548 -89.065,28.933548 -49.06122,0 -83.78148,-23.146838 z"
         style="font-style:normal;font-variant:normal;font-weight:normal;font-stretch:normal;font-size:515.26867676px;font-family:'Trebuchet MS';-inkscape-font-specification:'Trebuchet MS'"
         id="path4210" />
      <path
         d="m -325.02834,-105.68871 0,-368.58819 50.3192,0 0,368.58819 -50.3192,0 z"
         style="font-style:normal;font-variant:normal;font-weight:normal;font-stretch:normal;font-size:515.26867676px;font-family:'Trebuchet MS';-inkscape-font-specification:'Trebuchet MS'"
         id="path4212" />
      <path
         d="m -207.53296,-293.12776 q 0,-80.00754 40.00377,-133.84909 40.25536,-53.84155 108.437888,-53.84155 76.73679,0 117.495348,49.56442 41.010153,49.56442 41.010153,138.12622 0,90.82617 -41.010153,142.40336 -41.010154,51.325588 -117.495348,51.325588 -69.692098,0 -109.192678,-54.344748 -39.24898,-54.34474 -39.24898,-139.3842 z m 52.83517,0 q 0,63.4022 24.908,105.92193 25.15961,42.51973 70.698488,42.51973 51.5771868,0 78.497962,-38.99738 27.172372,-38.99739 27.172372,-109.44428 0,-142.40335 -105.670334,-142.40335 -46.796858,0 -71.201678,38.24259 -24.40481,38.2426 -24.40481,104.16076 z"
         style="font-style:normal;font-variant:normal;font-weight:normal;font-stretch:normal;font-size:515.26867676px;font-family:'Trebuchet MS';-inkscape-font-specification:'Trebuchet MS'"
         id="path4214" />
      <path
         d="m 395.54272,-100.65679 -190.4582,-269.45935 0,264.42743 -47.80324,0 0,-368.58819 20.12768,0 185.42627,254.86678 0,-254.86678 47.80325,0 0,373.62011 -15.09576,0 z"
         style="font-style:normal;font-variant:normal;font-weight:normal;font-stretch:normal;font-size:515.26867676px;font-family:'Trebuchet MS';-inkscape-font-specification:'Trebuchet MS'"
         id="path4216" />
    </g>
    <g
       transform="scale(0.94369057,1.0596694)"
       style="font-style:normal;font-variant:normal;font-weight:normal;font-stretch:normal;font-size:119.88294983px;line-height:125%;font-family:'Trebuchet MS';-inkscape-font-specification:'Trebuchet MS';letter-spacing:0px;word-spacing:0px;fill:#000000;fill-opacity:0.36470588;stroke:none;stroke-width:1px;stroke-linecap:butt;stroke-linejoin:miter;stroke-opacity:1"
       id="text4140">
      <path
         d="m -848.34698,-71.240509 -3.92196,10.009758 q -5.61951,-4.097562 -17.67805,-4.097562 -11.29756,0 -18.14634,9.717075 -6.79025,9.717075 -6.79025,25.053663 0,14.63415 6.96586,23.7658586 7.02439,9.0731725 18.0878,9.0731725 12.05854,0 18.55611,-8.5463431 l 6.43902,8.9560993 q -10.18537,10.1268307 -26.22439,10.1268307 -16.80001,0 -26.45855,-12.11707502 -9.65853,-12.11707598 -9.65853,-31.96098198 0,-19.200003 10.30244,-31.902445 10.30244,-12.702441 26.63415,-12.702441 13.99024,0 21.89269,4.624391 z"
         style=""
         id="path4219" />
      <path
         d="m -782.25917,11.354629 0,-41.443911 -37.46342,0 0,41.443911 -11.70732,0 0,-85.756114 11.70732,0 0,34.360982 37.46342,0 0,-34.360982 11.70732,0 0,85.756114 -11.70732,0 z"
         style=""
         id="path4221" />
      <path
         d="m -705.40062,11.354629 -22.88781,-36.81952 q -3.92195,0 -12.40976,-0.585366 l 0,37.404886 -11.70732,0 0,-85.756114 q 0.64391,0 9.07318,-0.409757 8.4878,-0.468292 12.35122,-0.468292 30.90732,0 30.90732,24.58537 0,8.078051 -4.97561,14.575613 -4.97561,6.439025 -11.82439,8.019513 l 24.87805,39.453667 -13.40488,0 z m -35.29757,-75.219527 0,27.86342 q 4.21464,0.585366 8.19513,0.585366 10.53658,0 15.33658,-3.395123 4.80001,-3.395122 4.80001,-12.117075 0,-7.200002 -5.15123,-10.360978 -5.15122,-3.160976 -16.27317,-3.160976 -1.7561,0 -6.90732,0.585366 z"
         style=""
         id="path4223" />
      <path
         d="m -681.16646,11.354629 0,-85.756114 11.70732,0 0,85.756114 -11.70732,0 z"
         style=""
         id="path4225" />
      <path
         d="m -653.59573,7.4326766 4.27317,-10.7707338 q 3.27805,2.40000048 8.13659,4.03902518 4.91707,1.58048812 8.78049,1.58048812 6.84878,0 11.00488,-3.7463422 4.1561,-3.7463422 4.1561,-9.5414649 0,-4.331708 -2.34147,-8.019514 -2.28292,-3.746342 -11.59024,-8.136587 l -6.90732,-3.219513 q -8.78049,-4.097562 -12.29269,-9.717075 -3.45365,-5.619513 -3.45365,-13.521954 0,-9.600002 6.79024,-15.921954 6.79025,-6.321952 17.44391,-6.321952 14.22439,0 19.78537,4.624391 l -3.45366,10.185368 q -2.34147,-1.697562 -7.14147,-3.27805 -4.8,-1.580488 -8.89756,-1.580488 -5.97073,0 -9.42439,3.395123 -3.39513,3.395122 -3.39513,8.721953 0,3.278049 1.22927,5.970732 1.22927,2.692684 3.39513,4.507318 2.22439,1.814635 9.01463,5.092684 l 7.02439,3.336586 q 8.78049,4.156099 12.29269,9.951222 3.57073,5.736586 3.57073,14.634149 0,9.65853826 -7.78537,16.3902469 -7.72683,6.7317081 -20.72195,6.7317081 -11.41464,0 -19.49269,-5.3853664 z"
         style=""
         id="path4227" />
      <path
         d="m -560.87375,-63.864898 0,75.219527 -11.70732,0 0,-75.219527 -27.27805,0 0,-10.536587 67.49269,0 0,10.536587 -28.50732,0 z"
         style=""
         id="path4229" />
      <path
         d="m -520.54204,11.354629 0,-85.756114 11.70732,0 0,85.756114 -11.70732,0 z"
         style=""
         id="path4231" />
      <path
         d="m -440.40546,11.354629 -5.9122,-18.0878088 -31.90244,0 -6.32195,18.0878088 -13.1122,0 34.82927,-86.926846 3.10244,0 32.31221,86.926846 -12.99513,0 z m -21.42439,-64.448793 -13.28781,37.756105 25.46342,0 -12.17561,-37.756105 z"
         style=""
         id="path4233" />
      <path
         d="m -362.96153,12.52536 -44.31221,-62.692694 0,61.521963 -11.12195,0 0,-85.756114 4.68293,0 43.14147,59.297572 0,-59.297572 11.12195,0 0,86.926845 -3.51219,0 z"
         style=""
         id="path4235" />
      <path
         d="m -294.06395,-63.864898 0,23.824395 30.14635,0 0,9.951221 -30.14635,0 0,41.443911 -11.70732,0 0,-85.756114 52.97562,0 0,10.536587 -41.2683,0 z"
         style=""
         id="path4237" />
      <path
         d="m -231.0786,-63.864898 0,23.824395 28.33172,0 0,9.951221 -28.33172,0 0,30.90732318 38.8683,0 0,10.53658782 -50.57562,0 0,-85.756114 51.21953,0 0,10.536587 -39.51221,0 z"
         style=""
         id="path4239" />
      <path
         d="m -178.62979,11.354629 0,-85.756114 11.70732,0 0,75.21952618 38.75123,0 0,10.53658782 -50.45855,0 z"
         style=""
         id="path4241" />
      <path
         d="m -117.98587,11.354629 0,-85.756114 11.70732,0 0,75.21952618 38.751228,0 0,10.53658782 -50.458548,0 z"
         style=""
         id="path4243" />
      <path
         d="m -61.439509,-32.255136 q 0,-18.614638 9.307319,-31.141469 9.365856,-12.526832 25.229273,-12.526832 17.8536622,0 27.33659081,11.53171 9.54146529,11.531709 9.54146529,32.136591 0,21.131711 -9.54146529,33.13171377 Q -9.1077914,12.818043 -26.902917,12.818043 q -16.214637,0 -25.404883,-12.64390439 -9.131709,-12.64390461 -9.131709,-32.42927461 z m 12.292685,0 q 0,14.751222 5.795124,24.6439073 5.853659,9.8926848 16.448783,9.8926848 12.000002,0 18.2634183,-9.0731725 6.3219525,-9.0731726 6.3219525,-25.4634196 0,-33.131714 -24.5853708,-33.131714 -10.887807,0 -16.565857,8.897563 -5.67805,8.897563 -5.67805,24.234151 z"
         style=""
         id="path4245" />
      <path
         d="m 89.350778,12.52536 -3.687805,0 -20.429272,-59.121962 -19.082931,59.121962 -3.687806,0 -27.043907,-86.926845 12.175612,0 17.209759,59.882938 18.848784,-59.882938 4.097562,0 18.614638,59.765865 17.502438,-59.765865 12.17562,0 -26.692692,86.926845 z"
         style=""
         id="path4247" />
      <path
         d="m 121.66298,7.4326766 4.27318,-10.7707338 q 3.27805,2.40000048 8.13658,4.03902518 4.91708,1.58048812 8.78049,1.58048812 6.84878,0 11.00488,-3.7463422 4.1561,-3.7463422 4.1561,-9.5414649 0,-4.331708 -2.34146,-8.019514 -2.28293,-3.746342 -11.59025,-8.136587 l -6.90732,-3.219513 q -8.78049,-4.097562 -12.29268,-9.717075 -3.45366,-5.619513 -3.45366,-13.521954 0,-9.600002 6.79024,-15.921954 6.79025,-6.321952 17.44391,-6.321952 14.22439,0 19.78537,4.624391 l -3.45366,10.185368 q -2.34146,-1.697562 -7.14146,-3.27805 -4.80001,-1.580488 -8.89757,-1.580488 -5.97073,0 -9.42439,3.395123 -3.39512,3.395122 -3.39512,8.721953 0,3.278049 1.22927,5.970732 1.22926,2.692684 3.39512,4.507318 2.22439,1.814635 9.01463,5.092684 l 7.0244,3.336586 q 8.78049,4.156099 12.29268,9.951222 3.57073,5.736586 3.57073,14.634149 0,9.65853826 -7.78536,16.3902469 -7.72683,6.7317081 -20.72196,6.7317081 -11.41463,0 -19.49269,-5.3853664 z"
         style=""
         id="path4249" />
      <path
         d="m 232.29712,11.354629 0,-41.443911 -37.46342,0 0,41.443911 -11.70732,0 0,-85.756114 11.70732,0 0,34.360982 37.46342,0 0,-34.360982 11.70732,0 0,85.756114 -11.70732,0 z"
         style=""
         id="path4251" />
      <path
         d="m 263.61424,11.354629 0,-85.756114 11.70732,0 0,85.756114 -11.70732,0 z"
         style=""
         id="path4253" />
      <path
         d="m 306.75569,-21.660012 0,33.014641 -11.70732,0 0,-85.756114 q 13.28781,-0.585366 16.03903,-0.585366 37.34635,0 37.34635,24.995126 0,28.917079 -33.01464,28.917079 -1.99025,0 -8.66342,-0.585366 z m 0,-42.204886 0,31.668299 q 7.43415,0.585366 7.84391,0.585366 21.77561,0 21.77561,-17.151223 0,-15.687808 -23.23903,-15.687808 -2.34146,0 -6.38049,0.585366 z"
         style=""
         id="path4255" />
    </g>
    <rect
       style="fill:#000000;fill-opacity:0.36470588"
       id="rect4164"
       width="1194.2856"
       height="51.42857"
       x="-862.85712"
       y="46.647923" />
    <g
       transform="matrix(1.0265955,0.00118826,-0.00157904,0.97409165,0,0)"
       style="font-style:normal;font-variant:normal;font-weight:normal;font-stretch:normal;font-size:229.10440063px;line-height:125%;font-family:'Trebuchet MS';-inkscape-font-specification:'Trebuchet MS';letter-spacing:0px;word-spacing:0px;fill:#000000;fill-opacity:0.36470588;stroke:none;stroke-width:1px;stroke-linecap:butt;stroke-linejoin:miter;stroke-opacity:1"
       id="text4140-6">
      <path
         d="m -716.9411,146.50046 -9.28499,18.45812 q -16.89198,-12.52914 -33.11275,-12.52914 -25.7295,0 -40.60786,18.12251 -14.87836,18.12252 -14.87836,47.99111 0,28.41431 14.54276,45.75376 14.65463,17.33944 39.82479,17.33944 17.89878,0 28.97365,-10.73927 l 0,-38.37051 -22.70908,0 0,-19.01745 45.08256,0 0,71.37139 q -8.94939,7.60698 -24.94643,12.30541 -15.99704,4.58656 -31.09913,4.58656 -33.89582,0 -53.58448,-22.93281 -19.57679,-23.04468 -19.57679,-61.19146 0,-38.03491 21.47854,-61.63893 21.5904,-23.71588 58.17104,-23.71588 25.61763,0 41.72653,14.20715 z"
         style=""
         id="path4258" />
      <path
         d="m -582.58837,298.97571 -11.2986,-34.56702 -60.96773,0 -12.08168,34.56702 -25.05829,0 66.56109,-166.12307 5.92898,0 61.75079,166.12307 -24.83456,0 z m -40.94346,-123.16599 -25.3939,72.15446 48.66232,0 -23.26842,-72.15446 z"
         style=""
         id="path4260" />
      <path
         d="m -503.16252,155.22612 0,143.74959 -22.37348,0 0,-143.74959 -52.1302,0 0,-20.13613 128.9831,0 0,20.13613 -54.47942,0 z"
         style=""
         id="path4262" />
      <path
         d="m -407.62779,155.22612 0,45.53003 54.14382,0 0,19.01745 -54.14382,0 0,59.06598 74.27994,0 0,20.13613 -96.65341,0 0,-163.88572 97.88396,0 0,20.13613 -75.51049,0 z"
         style=""
         id="path4264" />
      <path
         d="m -314.77782,291.48059 8.16632,-20.5836 q 6.26457,4.58657 15.54956,7.71885 9.39686,3.02042 16.78011,3.02042 13.08848,0 21.03107,-7.15951 7.94258,-7.15951 7.94258,-18.23438 0,-8.27819 -4.47469,-15.32583 -4.36283,-7.15952 -22.14974,-15.54957 l -13.20036,-6.15271 q -16.7801,-7.83071 -23.49215,-18.56998 -6.60017,-10.73927 -6.60017,-25.84137 0,-18.34625 12.97661,-30.42793 12.97662,-12.08167 33.33648,-12.08167 27.18378,0 37.81118,8.83752 l -6.60018,19.46493 q -4.47469,-3.24416 -13.64782,-6.26458 -9.17312,-3.02042 -17.00384,-3.02042 -11.41047,0 -18.01065,6.48831 -6.48831,6.48831 -6.48831,16.66824 0,6.26457 2.34922,11.41047 2.34921,5.1459 6.48831,8.61379 4.25096,3.46789 17.22757,9.73246 l 13.42409,6.37645 q 16.78011,7.94258 23.49215,19.01745 6.82391,10.963 6.82391,27.96685 0,18.45811 -14.87836,31.32286 -14.76649,12.86475 -39.60105,12.86475 -21.81414,0 -37.25184,-10.2918 z"
         style=""
         id="path4266" />
      <path
         d="m -103.34852,298.97571 0,-79.20211 -71.59512,0 0,79.20211 -22.37348,0 0,-163.88572 22.37348,0 0,65.66616 71.59512,0 0,-65.66616 22.373477,0 0,163.88572 -22.373477,0 z"
         style=""
         id="path4268" />
      <path
         d="m -25.041301,155.22612 0,45.53003 54.143813,0 0,19.01745 -54.143813,0 0,59.06598 74.279942,0 0,20.13613 -96.653419,0 0,-163.88572 97.88396,0 0,20.13613 -75.510483,0 z"
         style=""
         id="path4270" />
      <path
         d="m 168.26551,298.97571 -11.2986,-34.56702 -60.967726,0 -12.081677,34.56702 -25.058294,0 66.561097,-166.12307 5.92897,0 61.75079,166.12307 -24.83456,0 z m -40.94346,-123.16599 -25.39389,72.15446 48.66231,0 -23.26842,-72.15446 z"
         style=""
         id="path4272" />
      <path
         d="m 243.32859,298.97571 -33.00088,0 0,-163.88572 q 31.54661,-1.11867 40.38413,-1.11867 34.34329,0 54.36755,20.9192 20.02426,20.80733 20.02426,55.48622 0,88.59897 -81.77506,88.59897 z m -10.6274,-143.74959 0,122.49479 q 7.49512,1.11867 18.56999,1.11867 23.49215,0 36.91623,-17.56318 13.42409,-17.67505 13.42409,-48.99791 0,-58.17104 -52.24207,-58.17104 -3.13229,0 -16.66824,1.11867 z"
         style=""
         id="path4274" />
    </g>
    <rect
       style="fill:none;fill-opacity:0.36470588;stroke:#000000;stroke-width:2.33434415;stroke-opacity:0.36470588"
       id="rect4186"
       width="1272.9514"
       height="954.20142"
       x="-895.76605"
       y="-626.10376" />
    <flowRoot
       xml:space="preserve"
       id="flowRoot4145"
       style="font-style:normal;font-weight:normal;font-size:40px;line-height:125%;font-family:sans-serif;letter-spacing:0px;word-spacing:0px;fill:#000000;fill-opacity:1;stroke:none;stroke-width:1px;stroke-linecap:butt;stroke-linejoin:miter;stroke-opacity:1"
       transform="translate(-897.14755,-627.57096)"><flowRegion
         id="flowRegion4147"><rect
           id="rect4149"
           width="1694.2858"
           height="1408.5714"
           x="-200"
           y="-157.59279" /></flowRegion><flowPara
         id="flowPara4151"></flowPara></flowRoot>  </g>
</svg>
