<?xml version="1.0" encoding="UTF-8" standalone="no"?>
<!DOCTYPE svg PUBLIC "-//W3C//DTD SVG 1.1//EN" "http://www.w3.org/Graphics/SVG/1.1/DTD/svg11.dtd">
<svg width="100%" height="100%" viewBox="0 0 161 44" version="1.1" xmlns="http://www.w3.org/2000/svg" xmlns:xlink="http://www.w3.org/1999/xlink" xml:space="preserve" xmlns:serif="http://www.serif.com/" style="fill-rule:evenodd;clip-rule:evenodd;stroke-linejoin:round;stroke-miterlimit:2;">
    <g id="g4138" transform="matrix(0.28106,0,0,0.28106,-0.083577,19.9974)">
        <path id="path14" d="M78.894,82.962C78.385,82.972 77.875,82.982 77.363,82.982C48.2,82.982 22.821,66.781 9.732,42.89L51.478,42.89C66.35,42.89 73.796,37.839 73.796,27.744L73.796,25.569C73.796,15.965 66.792,11.173 52.805,11.173L35.348,11.173C31.813,11.173 29.602,11.122 28.703,11.019C25.387,10.697 23.722,9.813 23.722,8.403L23.722,6.26C23.722,4.786 27.344,4.033 34.6,4.033L78.894,4.033L78.894,82.962" style="fill:rgb(102,102,102);"/>
        <path id="path16" d="M134.375,57.771C123.48,69.741 108.863,78.264 92.358,81.519L92.358,4.238L123.616,4.238C130.787,4.238 134.375,5.92 134.375,9.269L134.375,57.771" style="fill:rgb(102,102,102);"/>
        <path id="path18" d="M92.358,-69.686C127.743,-62.71 154.43,-31.513 154.43,5.917C154.43,17.032 152.071,27.594 147.836,37.139L147.836,9.15C147.836,2.115 144.565,-2.645 138.029,-5.145C133.993,-6.689 127.746,-7.49 119.247,-7.49L92.358,-7.49L92.358,-69.686" style="fill:rgb(102,102,102);"/>
        <path id="path20" d="M77.363,-71.15C77.875,-71.15 78.385,-71.14 78.894,-71.13L78.894,-7.899L34.159,-7.899C27.258,-7.899 22.056,-7.228 18.572,-5.91C13.033,-3.815 10.26,0.107 10.26,5.852L10.26,8.454C10.26,18.226 18.624,23.105 35.348,23.105L52.446,23.105C57.426,23.105 59.925,24.058 59.925,25.943L59.925,27.728C59.925,29.955 57.139,31.06 51.546,31.06L4.496,31.06C1.777,23.179 0.297,14.721 0.297,5.917C0.297,-36.646 34.802,-71.15 77.363,-71.15" style="fill:rgb(102,102,102);"/>
        <path id="path22" d="M245.95,-8.364C245.95,-5.052 245.466,-2.513 244.5,-0.76C242.073,3.682 234.966,5.903 223.183,5.903L187.668,5.903L187.668,-3.948L224.839,-3.948C231.296,-3.948 234.525,-5.218 234.525,-7.771L234.525,-11.192C234.525,-13.924 230.868,-15.291 223.541,-15.291L207.742,-15.291C202.79,-15.291 198.456,-16.229 194.732,-18.091C190.026,-20.437 187.668,-23.845 187.668,-28.301L187.668,-32.027C187.668,-37.892 190.495,-41.839 196.139,-43.893C199.616,-45.191 204.9,-45.839 212.006,-45.839L219.802,-45.839L219.802,-36.154L210.654,-36.154C202.941,-36.154 199.091,-34.815 199.091,-32.137L199.091,-29.089C199.091,-26.564 203.175,-25.308 211.33,-25.308L223.335,-25.308C229.06,-25.308 233.904,-24.466 237.837,-22.796C243.245,-20.506 245.95,-16.891 245.95,-11.924C245.964,-11.551 245.964,-10.958 245.95,-10.143L245.95,-8.364ZM321.371,-46.668L289.249,-15.718L289.249,5.82L277.824,5.82L277.824,-15.69L245.454,-46.668L260.907,-46.668L283.466,-24.99L306.221,-46.668L321.371,-46.668ZM378.467,-8.364C378.467,-5.052 377.984,-2.513 377.018,-0.76C374.59,3.682 367.484,5.903 355.7,5.903L320.184,5.903L320.184,-3.948L357.356,-3.948C363.814,-3.948 367.042,-5.218 367.042,-7.771L367.042,-11.192C367.042,-13.924 363.385,-15.291 356.059,-15.291L340.26,-15.291C335.308,-15.291 330.974,-16.229 327.249,-18.091C322.544,-20.437 320.184,-23.845 320.184,-28.301L320.184,-32.027C320.184,-37.892 323.013,-41.839 328.656,-43.893C332.134,-45.191 337.418,-45.839 344.524,-45.839L352.319,-45.839L352.319,-36.154L343.173,-36.154C335.459,-36.154 331.61,-34.815 331.61,-32.137L331.61,-29.089C331.61,-26.564 335.693,-25.308 343.849,-25.308L355.851,-25.308C361.578,-25.308 366.421,-24.466 370.354,-22.796C375.764,-20.506 378.467,-16.891 378.467,-11.924C378.481,-11.551 378.481,-10.958 378.467,-10.143L378.467,-8.364ZM419.212,-36.401L396.046,-36.401L396.046,5.82L384.621,5.82L384.621,-36.401L361.524,-36.401L361.524,-46.088L419.212,-46.088L419.212,-36.401ZM480.518,5.573L443.98,5.573C438.64,5.573 434.032,4.661 430.155,2.826C425.174,0.398 422.676,-3.19 422.676,-7.922L422.676,-32.344C422.676,-37.243 425.27,-40.899 430.445,-43.301C434.404,-45.163 439.165,-46.088 444.754,-46.088L456.344,-46.088L456.344,-36.401L445.319,-36.401C437.785,-36.401 434.019,-35.063 434.019,-32.386L434.019,-24.977L480.517,-24.977L480.517,-15.125L434.019,-15.125L434.019,-8.268C434.019,-5.604 437.454,-4.279 444.339,-4.279L480.517,-4.279L480.517,5.573ZM569.997,5.82L558.573,5.82L558.573,-27.28L534.247,2.716C532.495,4.841 530.287,5.903 527.61,5.903C524.892,5.903 522.656,4.827 520.905,2.674L496.15,-27.488L496.15,5.78L484.725,5.82L484.725,-40.183C484.725,-41.963 485.306,-43.356 486.451,-44.391C487.596,-45.411 489.071,-45.921 490.88,-45.921C493.487,-45.921 495.557,-45.011 497.104,-43.176L527.679,-6.929L557.539,-43.231C559.084,-45.025 561.111,-45.921 563.622,-45.921C565.5,-45.921 567.017,-45.358 568.219,-44.211C569.405,-43.065 569.997,-41.575 569.997,-39.74L569.997,5.82" style="fill:rgb(102,102,102);fill-rule:nonzero;"/>
        <path id="path24" d="M240.286,58.433L230.936,58.433L230.936,41.166L197.085,41.166L197.085,58.399L187.665,58.433L187.665,15.367L197.085,15.367L197.085,33.044L230.936,33.044L230.936,15.367L240.286,15.367L240.286,58.433ZM295.694,46.33C295.694,54.258 289.086,58.228 275.868,58.228L264.334,58.228C259.159,58.228 254.893,57.511 251.536,56.067C246.895,54.065 244.576,50.835 244.576,46.363L244.576,27.641C244.576,19.644 251.161,15.64 264.334,15.64L275.868,15.64C281.715,15.64 286.083,16.243 288.995,17.438C293.464,19.257 295.694,22.658 295.694,27.641L295.694,46.33L295.694,46.33ZM286.276,46.136L286.276,27.767C286.276,25.003 282.864,23.625 276.049,23.625L264.323,23.625C257.441,23.625 253.994,25.003 253.994,27.767L253.994,46.136C253.994,48.788 257.441,50.107 264.323,50.107L276.084,50.107C282.875,50.107 286.276,48.788 286.276,46.136ZM351.943,58.501L334.824,58.501L308.924,44.077L308.924,58.501L299.505,58.501L299.505,15.64L332.89,15.64C337.816,15.64 341.876,16.323 345.05,17.699C349.451,19.587 351.648,22.647 351.648,26.891L351.648,31.781C351.648,35.774 349.634,38.709 345.596,40.574C342.581,41.973 338.806,42.667 334.279,42.667L323.369,42.667L351.943,58.501ZM342.229,31.873L342.229,26.709C342.229,24.65 339.488,23.625 334.005,23.625L308.924,23.625L308.924,34.682L335.678,34.682C340.045,34.682 342.229,33.75 342.229,31.873ZM364.636,58.433L355.219,58.433L355.219,15.367L364.636,15.367L364.636,58.433ZM464.85,46.33C464.85,54.258 458.243,58.228 445.024,58.228L433.49,58.228C428.315,58.228 424.05,57.511 420.693,56.067C416.053,54.065 413.733,50.835 413.733,46.363L413.733,27.641C413.733,19.644 420.318,15.64 433.49,15.64L445.024,15.64C450.871,15.64 455.24,16.243 458.151,17.438C462.621,19.257 464.85,22.658 464.85,27.641L464.85,46.33ZM455.433,46.136L455.433,27.767C455.433,25.003 452.02,23.625 445.206,23.625L433.479,23.625C426.597,23.625 423.15,25.003 423.15,27.767L423.15,46.136C423.15,48.788 426.597,50.107 433.479,50.107L445.24,50.107C452.031,50.107 455.433,48.788 455.433,46.136ZM520.804,52.871C520.804,56.624 519.256,58.501 516.174,58.501C514.331,58.501 512.558,57.739 510.851,56.226L477.944,28.278L477.944,58.501L468.525,58.467L468.525,20.736C468.525,17.107 470.026,15.299 473.018,15.299C475.043,15.299 476.999,16.107 478.889,17.733L511.386,45.306L511.386,15.299L520.804,15.299L520.804,52.871L520.804,52.871ZM572.583,46.739C572.583,49.47 572.184,51.563 571.387,53.007C569.386,56.67 563.529,58.501 553.814,58.501L524.535,58.501L524.535,50.38L555.179,50.38C560.502,50.38 563.164,49.334 563.164,47.229L563.164,44.407C563.164,42.155 560.15,41.029 554.11,41.029L541.085,41.029C537.002,41.029 533.43,40.255 530.358,38.72C526.48,36.786 524.535,33.977 524.535,30.303L524.535,27.232C524.535,22.397 526.866,19.144 531.519,17.449C534.386,16.379 538.742,15.845 544.6,15.845L551.026,15.845L551.026,23.83L543.485,23.83C537.127,23.83 533.952,24.934 533.952,27.141L533.952,29.655C533.952,31.736 537.321,32.771 544.042,32.771L553.939,32.771C558.66,32.771 562.652,33.465 565.894,34.841C570.353,36.729 572.583,39.71 572.583,43.804C572.594,44.111 572.594,44.6 572.583,45.272L572.583,46.739ZM409.091,58.501L369.438,58.501L369.438,54.395L395.076,26.493L369.438,26.493L369.438,18.438L409.091,18.438L409.091,22.453L383.293,50.448L409.091,50.448L409.091,58.501" style="fill:rgb(102,102,102);fill-rule:nonzero;"/>
    </g>
</svg>
